<?xml version="1.0" encoding="iso-8859-1"?>
<!-- Generator: Adobe Illustrator 19.0.0, SVG Export Plug-In . SVG Version: 6.00 Build 0)  -->
<svg version="1.1" id="Layer_1" xmlns="http://www.w3.org/2000/svg" xmlns:xlink="http://www.w3.org/1999/xlink" x="0px" y="0px"
	 viewBox="0 0 512.005 512.005" style="enable-background:new 0 0 512.005 512.005;" xml:space="preserve">
<g>
	<g>
		<path d="M274.203,290.323c-10.036-10.038-26.369-10.038-36.406,0c-3.351,3.351-3.351,8.785,0,12.135
			c3.351,3.351,8.785,3.351,12.135,0c1.621-1.621,3.776-2.514,6.068-2.514c2.292,0,4.448,0.892,6.068,2.514
			c1.675,1.675,3.872,2.514,6.068,2.514c2.196,0,4.393-0.838,6.068-2.514C277.554,299.107,277.554,293.673,274.203,290.323z"/>
	</g>
</g>
<g>
	<g>
		<path d="M215.953,251.767c-4.74,0-8.582,3.842-8.582,8.582c0,4.732-3.849,8.582-8.582,8.582c-4.732,0-8.581-3.849-8.581-8.582
			c0-4.739-3.841-8.582-8.582-8.582s-8.582,3.842-8.582,8.582c0,14.196,11.55,25.745,25.745,25.745
			c14.195,0,25.745-11.548,25.745-25.745C224.534,255.609,220.693,251.767,215.953,251.767z"/>
	</g>
</g>
<g>
	<g>
		<path d="M330.373,251.767c-4.74,0-8.581,3.842-8.581,8.582c0,4.732-3.849,8.582-8.582,8.582s-8.582-3.849-8.582-8.582
			c0-4.739-3.841-8.582-8.581-8.582c-4.74,0-8.582,3.842-8.582,8.582c0,14.196,11.55,25.745,25.745,25.745
			s25.745-11.548,25.745-25.745C338.955,255.609,335.114,251.767,330.373,251.767z"/>
	</g>
</g>
<g>
	<g>
		<path d="M191.04,208.728c-1.468-4.506-6.309-6.969-10.817-5.501c-11.923,3.885-22.576,11.633-30,21.821
			c-2.791,3.831-1.949,9.198,1.882,11.989c1.525,1.111,3.294,1.646,5.047,1.646c2.649,0,5.263-1.223,6.942-3.529
			c5.314-7.292,12.93-12.835,21.445-15.609C190.046,218.078,192.508,213.235,191.04,208.728z"/>
	</g>
</g>
<g>
	<g>
		<path d="M361.778,225.049c-7.422-10.188-18.077-17.938-30-21.821c-4.51-1.468-9.349,0.997-10.817,5.501
			c-1.468,4.506,0.994,9.349,5.501,10.818c8.515,2.772,16.131,8.316,21.445,15.608c1.68,2.306,4.293,3.529,6.942,3.529
			c1.753,0,3.522-0.535,5.047-1.646C363.727,234.247,364.569,228.88,361.778,225.049z"/>
	</g>
</g>
<g>
	<g>
		<path d="M493.383,258.155c-0.527-14.759-6.527-28.794-16.892-39.518c-10.37-10.73-24.195-17.199-38.927-18.213
			c-7.445-0.514-14.88,0.357-21.929,2.531c-14.571-46.212-44.776-87.295-82.113-111.18c-0.864-0.554-1.734-1.102-2.607-1.638
			c-25.417-17.447-51.955-63.512-62.2-82.537C266.195,2.912,261.322,0,256,0c-5.322,0-10.194,2.912-12.717,7.599
			c-10.245,19.026-36.784,65.089-62.2,82.538c-0.872,0.535-1.739,1.081-2.602,1.634c-28.977,18.537-54.054,47.716-70.611,82.162
			c-2.053,4.271-0.255,9.398,4.017,11.452c4.271,2.055,9.398,0.256,11.452-4.017c15.194-31.611,38.063-58.295,64.392-75.139
			c0.83-0.532,1.661-1.055,2.5-1.569c0.12-0.072,0.238-0.149,0.355-0.228c26.013-17.734,51.31-58.684,65.415-84.299
			c14.105,25.614,39.401,66.564,65.415,84.299c0.117,0.079,0.233,0.156,0.355,0.228c0.836,0.513,1.668,1.035,2.501,1.569
			c36.28,23.21,65.23,64.452,77.453,110.334c0.12,0.473,0.287,0.938,0.494,1.397c0.017,0.039,0.034,0.079,0.053,0.118
			c0.041,0.087,0.073,0.177,0.118,0.263c0.161,0.318,0.346,0.616,0.54,0.905c0.013,0.019,0.027,0.038,0.041,0.057
			c0.522,0.761,1.151,1.414,1.857,1.953c0.017,0.014,0.035,0.027,0.053,0.04c0.36,0.271,0.738,0.515,1.134,0.724
			c0.002,0.001,0.005,0.002,0.007,0.003c0.403,0.213,0.819,0.394,1.248,0.54c0.007,0.002,0.014,0.006,0.022,0.008
			c0.405,0.137,0.821,0.238,1.243,0.313c0.063,0.011,0.125,0.023,0.188,0.032c0.417,0.065,0.836,0.102,1.261,0.104
			c0.018,0,0.037,0.005,0.055,0.005c0.045,0,0.09-0.008,0.135-0.009c0.28-0.005,0.561-0.023,0.841-0.055
			c0.072-0.008,0.144-0.016,0.217-0.026c0.34-0.048,0.68-0.111,1.017-0.2c0,0,0,0,0.001,0c0.231-0.062,0.46-0.138,0.689-0.221
			c0.053-0.019,0.109-0.033,0.161-0.053c0.116-0.045,0.229-0.101,0.344-0.15c0.158-0.069,0.319-0.134,0.471-0.211
			c0.006-0.002,0.011-0.005,0.017-0.008c6.898-3.512,14.672-5.088,22.456-4.548c21.57,1.486,39.072,19.593,39.846,41.221
			c0.42,11.775-3.84,22.915-11.998,31.371c-8.163,8.46-19.13,13.118-30.881,13.118c-6.822,0-13.397-1.58-19.354-4.603
			c7.146-14.124,10.773-26.984,10.773-38.305c0-4.732,3.849-8.581,8.582-8.581s8.582,3.849,8.582,8.581
			c0,4.74,3.841,8.582,8.581,8.582c4.74,0,8.582-3.841,8.582-8.582c0-14.195-11.55-25.745-25.745-25.745
			s-25.745,11.55-25.745,25.745c0,10.204-4.179,22.668-12.419,37.045c-0.001,0.001-0.001,0.002-0.002,0.003
			c-19.057,33.244-55.019,68.761-81.832,92.702c-15.785,14.094-36.153,21.858-57.351,21.858c-14.3,0-28.503-3.602-41.072-10.417
			c-0.005-0.002-0.008-0.003-0.013-0.006c-5.855-3.175-11.328-7.022-16.267-11.434c-26.812-23.94-62.772-59.457-81.831-92.7
			c-0.003-0.007-0.008-0.013-0.011-0.018c-8.236-14.371-12.413-26.829-12.413-37.032c0-14.195-11.55-25.745-25.745-25.745
			s-25.745,11.55-25.745,25.745c0,4.74,3.841,8.582,8.582,8.582c4.74,0,8.581-3.841,8.581-8.582c0-4.732,3.849-8.582,8.582-8.582
			s8.582,3.849,8.582,8.582c0,11.321,3.628,24.18,10.773,38.303c-5.957,3.023-12.531,4.604-19.354,4.604
			c-11.752,0-22.719-4.659-30.882-13.119c-8.158-8.455-12.419-19.596-11.997-31.371c0.775-21.627,18.275-39.734,39.841-41.22
			c7.785-0.541,15.555,1.033,22.457,4.546c0.003,0.001,0.007,0.003,0.01,0.005l9.07,4.601c2.556,1.297,5.309,1.928,8.036,1.928
			c4.588,0,9.107-1.785,12.508-5.184l45.796-45.514c45.714-45.433,119.983-45.32,165.558,0.256l30.692,30.692
			c3.353,3.35,8.785,3.35,12.137,0c3.351-3.352,3.351-8.785,0-12.137l-30.692-30.692c-52.245-52.245-137.388-52.375-189.795-0.292
			l-45.814,45.531c-0.176,0.177-0.444,0.217-0.664,0.108l-9.052-4.592c-0.003-0.001-0.006-0.003-0.009-0.006
			c-9.67-4.919-20.534-7.126-31.422-6.371c-14.729,1.017-28.552,7.485-38.921,18.213c-10.365,10.725-16.363,24.758-16.892,39.515
			c-0.589,16.473,5.377,32.064,16.799,43.903c11.426,11.842,26.78,18.364,43.233,18.364c9.854,0,19.347-2.348,27.899-6.852
			c19.453,30.577,50.239,61.673,75.178,84.379c-32.534,19.289-56.782,51.137-66.589,87.533c-1.233,4.576,1.476,9.285,6.053,10.518
			c0.747,0.203,1.499,0.299,2.238,0.299c3.784,0,7.249-2.523,8.279-6.352c5.358-19.882,15.608-38.223,29.451-53.356
			c4.274,4.481,7.961,8.865,11.103,13.232c-13.02,14.768-21.863,32.579-25.692,51.931c-0.92,4.649,2.103,9.165,6.752,10.084
			c0.563,0.112,1.122,0.165,1.675,0.165c4.014,0,7.601-2.831,8.41-6.917c3.626-18.328,12.562-35.034,25.845-48.316
			c0.057-0.057,0.106-0.12,0.161-0.179c0.122-0.129,0.244-0.26,0.357-0.395c0.076-0.09,0.144-0.183,0.216-0.276
			c0.098-0.129,0.197-0.257,0.288-0.391c0.077-0.112,0.146-0.227,0.216-0.341c0.073-0.119,0.145-0.238,0.213-0.359
			c0.073-0.133,0.14-0.268,0.205-0.404c0.053-0.111,0.106-0.221,0.154-0.333c0.063-0.146,0.119-0.295,0.174-0.444
			c0.04-0.11,0.08-0.219,0.116-0.33c0.048-0.15,0.089-0.301,0.129-0.452c0.031-0.118,0.061-0.234,0.086-0.354
			c0.031-0.144,0.056-0.288,0.079-0.434c0.022-0.132,0.042-0.263,0.057-0.396c0.015-0.133,0.025-0.264,0.034-0.397
			c0.01-0.146,0.018-0.293,0.021-0.441c0.002-0.121-0.001-0.243-0.003-0.364c-0.003-0.157-0.01-0.312-0.023-0.469
			c-0.009-0.117-0.024-0.232-0.038-0.349c-0.019-0.157-0.04-0.313-0.068-0.47c-0.022-0.121-0.048-0.243-0.076-0.363
			c-0.033-0.145-0.066-0.291-0.106-0.435c-0.038-0.137-0.082-0.271-0.128-0.406c-0.041-0.125-0.082-0.248-0.13-0.371
			c-0.06-0.157-0.128-0.31-0.198-0.462c-0.046-0.101-0.089-0.2-0.138-0.3c-0.084-0.167-0.177-0.33-0.272-0.492
			c-0.037-0.063-0.066-0.128-0.105-0.191c-0.026-0.042-0.056-0.085-0.082-0.127c-0.023-0.035-0.045-0.071-0.069-0.106
			c-4.444-7.109-9.974-14.098-16.774-21.224c5.5-4.613,11.394-8.781,17.63-12.424c1.466-0.856,2.576-2.082,3.296-3.488
			c3.896,2.887,7.999,5.507,12.272,7.824c0.007,0.003,0.014,0.006,0.019,0.009c15.069,8.167,32.095,12.484,49.236,12.484
			c22.283,0,43.802-7.157,61.528-20.311c0.721,1.403,1.83,2.626,3.293,3.481c6.24,3.645,12.138,7.816,17.641,12.433
			c-6.914,7.243-12.337,14.094-16.788,21.216c-0.023,0.034-0.045,0.069-0.066,0.103c-0.026,0.044-0.056,0.086-0.083,0.128
			c-0.039,0.062-0.069,0.127-0.105,0.191c-0.095,0.162-0.189,0.325-0.272,0.492c-0.049,0.1-0.094,0.199-0.14,0.3
			c-0.07,0.153-0.138,0.307-0.198,0.462c-0.048,0.124-0.089,0.248-0.13,0.373c-0.045,0.135-0.089,0.269-0.127,0.405
			c-0.04,0.144-0.073,0.291-0.106,0.436c-0.026,0.121-0.054,0.241-0.076,0.363c-0.027,0.156-0.049,0.312-0.068,0.469
			c-0.014,0.117-0.029,0.232-0.038,0.349c-0.013,0.157-0.018,0.312-0.023,0.469c-0.003,0.121-0.006,0.243-0.003,0.364
			c0.002,0.148,0.01,0.293,0.021,0.439c0.009,0.133,0.019,0.265,0.034,0.398c0.015,0.132,0.035,0.262,0.057,0.394
			c0.024,0.146,0.049,0.292,0.08,0.436c0.025,0.117,0.055,0.232,0.085,0.349c0.04,0.153,0.082,0.305,0.13,0.458
			c0.035,0.109,0.074,0.215,0.113,0.323c0.055,0.152,0.112,0.302,0.176,0.451c0.047,0.11,0.098,0.217,0.151,0.325
			c0.066,0.138,0.134,0.277,0.209,0.413c0.065,0.118,0.135,0.233,0.206,0.349c0.072,0.119,0.145,0.237,0.224,0.352
			c0.088,0.129,0.183,0.254,0.279,0.38c0.074,0.096,0.146,0.193,0.225,0.287c0.111,0.133,0.229,0.26,0.348,0.386
			c0.057,0.061,0.109,0.126,0.168,0.186c13.282,13.281,22.219,29.988,25.845,48.316c0.809,4.086,4.395,6.917,8.41,6.917
			c0.552,0,1.113-0.054,1.675-0.165c4.649-0.92,7.672-5.435,6.752-10.084c-3.83-19.353-12.673-37.165-25.694-51.933
			c3.116-4.327,6.776-8.667,11.117-13.218c13.837,15.131,24.083,33.468,29.439,53.344c1.031,3.83,4.497,6.351,8.279,6.351
			c0.739,0,1.491-0.096,2.238-0.299c4.577-1.232,7.286-5.942,6.053-10.517c-9.806-36.395-34.054-68.243-66.587-87.532
			c24.94-22.709,55.72-53.812,75.173-84.387c8.553,4.506,18.046,6.858,27.901,6.858c16.452,0,31.807-6.522,43.233-18.364
			C488.007,290.219,493.973,274.628,493.383,258.155z"/>
	</g>
</g>
<g>
</g>
<g>
</g>
<g>
</g>
<g>
</g>
<g>
</g>
<g>
</g>
<g>
</g>
<g>
</g>
<g>
</g>
<g>
</g>
<g>
</g>
<g>
</g>
<g>
</g>
<g>
</g>
<g>
</g>
</svg>
