<svg width="46" height="46" viewBox="0 0 46 46" fill="none" xmlns="http://www.w3.org/2000/svg">
<path fill-rule="evenodd" clip-rule="evenodd" d="M30.8053 7.71365C28.9536 5.83024 26.3404 4.79175 23.2912 4.79175C20.242 4.79175 17.6288 5.83024 15.7772 7.71365C13.927 9.5956 12.9114 12.2455 12.9114 15.3334C12.9114 19.4907 14.7214 22.1702 16.9616 23.7786C17.397 24.091 17.8469 24.3623 18.3008 24.5961C15.7973 25.284 13.7645 26.4832 12.1095 27.9708C9.49256 30.3227 7.87058 33.3487 6.77781 36.0583C6.57986 36.5492 6.8173 37.1075 7.30818 37.3055C7.79903 37.5035 8.35742 37.266 8.55537 36.7752C9.59549 34.1961 11.081 31.4721 13.3907 29.3962C15.6772 27.3413 18.8217 25.8751 23.2912 25.8751C27.4695 25.8751 30.486 27.1564 32.725 28.9952C34.9828 30.8494 36.5033 33.3148 37.5928 35.752C38.3196 37.3781 37.044 39.2917 35.0417 39.2917H12.9275C12.3983 39.2917 11.9692 39.7209 11.9692 40.2501C11.9692 40.7793 12.3983 41.2084 12.9275 41.2084H35.0417C38.2082 41.2084 40.725 38.0628 39.3427 34.97C38.186 32.3825 36.5131 29.6258 33.9415 27.514C32.4151 26.2605 30.5904 25.2497 28.4054 24.6306C29.574 23.9845 30.5346 23.127 31.299 22.155C32.9529 20.0522 33.6711 17.4421 33.6711 15.3334C33.6711 12.2455 32.6554 9.5956 30.8053 7.71365ZM29.4385 9.05735C30.8858 10.5296 31.7544 12.6713 31.7544 15.3334C31.7544 17.0581 31.1535 19.2396 29.7925 20.9701C28.4576 22.6675 26.3745 23.9584 23.2912 23.9584C22.0442 23.9584 19.8927 23.5235 18.0795 22.2215C16.3155 20.955 14.828 18.8429 14.828 15.3334C14.828 12.6713 15.6966 10.5296 17.144 9.05735C18.5899 7.58659 20.6874 6.70841 23.2912 6.70841C25.895 6.70841 27.9926 7.58659 29.4385 9.05735Z" fill="black"/>
</svg>
