<svg width="38" height="38" viewBox="0 0 38 38" fill="none" xmlns="http://www.w3.org/2000/svg">
<path d="M37.5211 35.2783L26.6183 24.3677C28.7677 21.79 30.0605 18.4958 30.0605 14.8979C30.0605 6.68967 23.3241 0.015625 15.038 0.015625C6.75192 0.015625 0 6.69746 0 14.9057C0 23.1139 6.73635 29.7879 15.0224 29.7879C18.5425 29.7879 21.7822 28.5808 24.3521 26.5638L35.2938 37.5055C35.9324 38.1441 36.8825 38.1441 37.5211 37.5055C38.1596 36.8669 38.1596 35.9168 37.5211 35.2783ZM3.19295 14.9057C3.19295 8.45747 8.50415 3.21636 15.0224 3.21636C21.5407 3.21636 26.8519 8.45747 26.8519 14.9057C26.8519 21.3539 21.5407 26.595 15.0224 26.595C8.50415 26.595 3.19295 21.3461 3.19295 14.9057Z" fill="black"/>
</svg>
