<svg width="38" height="38" viewBox="0 0 38 38" fill="none" xmlns="http://www.w3.org/2000/svg">
<g clip-path="url(#clip0_3_30)">
<path d="M11.4076 25.0201H32.3457C34.7198 25.0201 36.6567 23.0833 36.6567 20.7091V11.8997C36.6567 11.8919 36.6567 11.8762 36.6567 11.8684C36.6567 11.845 36.6567 11.8294 36.6567 11.806C36.6567 11.7903 36.6567 11.7747 36.6489 11.7591C36.6489 11.7435 36.6411 11.72 36.6411 11.7044C36.6411 11.6888 36.6332 11.6732 36.6332 11.6576C36.6254 11.642 36.6254 11.6263 36.6176 11.6029C36.6098 11.5873 36.6098 11.5717 36.602 11.556C36.5942 11.5404 36.5942 11.5248 36.5864 11.5092C36.5786 11.4936 36.5708 11.4779 36.563 11.4545C36.5551 11.4389 36.5473 11.4233 36.5395 11.4155C36.5317 11.3998 36.5239 11.3842 36.5161 11.3686C36.5083 11.353 36.5005 11.3452 36.4927 11.3296C36.4849 11.3139 36.4692 11.2983 36.4614 11.2827C36.4536 11.2671 36.4458 11.2593 36.4302 11.2437C36.4224 11.228 36.4068 11.2202 36.399 11.2046C36.3911 11.189 36.3755 11.1812 36.3677 11.1656C36.3599 11.1499 36.3443 11.1421 36.3365 11.1343C36.3209 11.1187 36.313 11.1109 36.2974 11.0953C36.2818 11.0875 36.274 11.0718 36.2584 11.064C36.2428 11.0562 36.2271 11.0406 36.2115 11.0328C36.1959 11.025 36.1881 11.0172 36.1725 11.0094C36.1568 11.0015 36.1412 10.9937 36.1256 10.9781C36.11 10.9703 36.0944 10.9625 36.0788 10.9547C36.0631 10.9469 36.0475 10.9391 36.0319 10.9313C36.0163 10.9235 36.0007 10.9156 35.985 10.9078C35.9694 10.9 35.9538 10.9 35.9382 10.8922C35.9226 10.8844 35.8991 10.8766 35.8835 10.8766C35.8679 10.8766 35.8523 10.8688 35.8445 10.8688C35.821 10.861 35.8054 10.861 35.782 10.861C35.7742 10.861 35.7664 10.8532 35.7507 10.8532L9.21309 7.19037V3.48853C9.21309 3.44948 9.21309 3.41044 9.20528 3.3792C9.20528 3.37139 9.20528 3.36358 9.19747 3.34796C9.19747 3.32453 9.18966 3.3011 9.18966 3.27767C9.18185 3.25424 9.18185 3.23862 9.17404 3.21519C9.17404 3.19957 9.16623 3.19176 9.16623 3.17614C9.15842 3.15271 9.15061 3.12928 9.1428 3.10585C9.1428 3.09804 9.13499 3.08242 9.13499 3.07462C9.12718 3.05119 9.11937 3.03557 9.10375 3.01214C9.09594 3.00433 9.09594 2.98871 9.08813 2.9809C9.08032 2.96528 9.07251 2.94966 9.05689 2.93404C9.04908 2.91842 9.04127 2.91061 9.03346 2.89499C9.02565 2.87937 9.01784 2.87156 9.01003 2.85594C9.00222 2.84032 8.9866 2.8247 8.97879 2.80908C8.97098 2.80127 8.96317 2.79346 8.95536 2.78565C8.93974 2.77003 8.92412 2.75441 8.9085 2.73879C8.90069 2.73098 8.89288 2.72317 8.88507 2.71537C8.86946 2.69975 8.85384 2.68413 8.83041 2.66851C8.8226 2.6607 8.80698 2.65289 8.79917 2.64508C8.78355 2.62946 8.76793 2.62165 8.75231 2.60603C8.72888 2.59041 8.70545 2.57479 8.68983 2.56698C8.68202 2.55917 8.67421 2.55917 8.6664 2.55136C8.63516 2.53574 8.59611 2.52012 8.56487 2.5045L2.80906 0.0834671C2.27019 -0.143017 1.65321 0.106896 1.42673 0.645772C1.20024 1.18465 1.45016 1.80162 1.98903 2.0281L7.09663 4.1836V8.96319V9.72074V15.5312V20.7247V27.285C7.09663 29.4717 8.73669 31.2836 10.8531 31.5569C10.4705 32.1973 10.244 32.947 10.244 33.7436C10.244 36.0944 12.1574 38 14.5003 38C16.8432 38 18.7566 36.0866 18.7566 33.7436C18.7566 32.9627 18.5458 32.2207 18.1709 31.596H27.652C27.2771 32.2285 27.0663 32.9627 27.0663 33.7436C27.0663 36.0944 28.9797 38 31.3226 38C33.6655 38 35.5789 36.0866 35.5789 33.7436C35.5789 31.4007 33.6655 29.4873 31.3226 29.4873H11.4076C10.1893 29.4873 9.20528 28.4955 9.20528 27.285V24.4266C9.84568 24.8014 10.6032 25.0201 11.4076 25.0201ZM16.6558 33.7358C16.6558 34.9229 15.6874 35.8835 14.5081 35.8835C13.3288 35.8835 12.3604 34.9151 12.3604 33.7358C12.3604 32.5566 13.3288 31.5881 14.5081 31.5881C15.6874 31.5881 16.6558 32.5487 16.6558 33.7358ZM33.4781 33.7358C33.4781 34.9229 32.5097 35.8835 31.3304 35.8835C30.1511 35.8835 29.1827 34.9151 29.1827 33.7358C29.1827 32.5566 30.1511 31.5881 31.3304 31.5881C32.5097 31.5881 33.4781 32.5487 33.4781 33.7358ZM32.3457 22.9115H11.4076C10.1893 22.9115 9.20528 21.9196 9.20528 20.7091V15.5156V9.70512V9.31463L34.548 12.8056V20.7013C34.548 21.9274 33.5562 22.9115 32.3457 22.9115Z" fill="black"/>
</g>
<defs>
<clipPath id="clip0_3_30">
<rect width="38" height="38" fill="white"/>
</clipPath>
</defs>
</svg>
